<svg xmlns="http://www.w3.org/2000/svg" width="24" height="24" fill="none" viewBox="0 0 24 24"><path fill="#FEF4F4" stroke="#FEF4F4" stroke-linecap="round" stroke-linejoin="round" d="M18.162 3.565h0c.359-.103.643-.184.87-.23.229-.047.435-.067.625-.018l.125-.483-.125.483c.439.114.782.457.896.897.049.189.03.395-.018.625-.046.226-.127.51-.23.87h0l-3.972 13.904.48.137-.48-.137c-.13.45-.23.804-.327 1.068-.097.262-.205.483-.372.626a1.25 1.25 0 0 1-1.363.175c-.197-.096-.357-.282-.517-.512a16.64 16.64 0 0 1-.587-.95l-.43.253.43-.254-2.904-4.915c-.198-.334-.287-.484-.39-.618l-.38.294.38-.294a2.747 2.747 0 0 0-.489-.488h0c-.134-.104-.284-.193-.618-.39L3.85 10.702h0c-.404-.239-.72-.426-.95-.587l-.248.354.247-.354c-.23-.16-.415-.32-.512-.517l-.449.22.45-.22a1.25 1.25 0 0 1 .175-1.363c.142-.167.363-.275.625-.371a16.08 16.08 0 0 1 1.069-.328h0L18.16 3.565Zm1.405.246a.5.5 0 0 0-.155-.022c-.052 0-.137.006-.28.036-.21.043-.481.12-.86.228L4.423 8.01c-.473.135-.814.232-1.062.324a1.828 1.828 0 0 0-.307.138.5.5 0 0 0-.148.134.75.75 0 0 0-.093.721.5.5 0 0 0 .11.168c.035.035.108.104.262.211.217.151.522.332.945.582l4.927 2.911h0c.182.107.317.187.434.264a.5.5 0 0 0 .627-.065l3.432-3.433a.25.25 0 0 1 .354.354l-3.433 3.432a.5.5 0 0 0-.065.627c.077.117.156.252.264.434h0l2.911 4.927c.25.423.43.728.582.945.107.154.176.227.211.262a.499.499 0 0 0 .168.11.75.75 0 0 0 .72-.093.5.5 0 0 0 .135-.149c.025-.042.073-.13.138-.306.092-.248.19-.59.324-1.062L19.817 5.6c.108-.38.186-.651.228-.86l-.49-.1.49.1c.03-.144.036-.23.036-.281a.499.499 0 0 0-.022-.155.75.75 0 0 0-.492-.492Z"/></svg>