<svg xmlns="http://www.w3.org/2000/svg" width="130" height="48" fill="none" viewBox="0 0 130 48"><rect width="130" height="48" fill="#FEF4F4" rx="15"/><g fill="#1A1C22" clip-path="url(#a)"><path d="M28.773 12.012c-.051-.057-1.889.022-3.488 1.758-1.599 1.734-1.352 3.723-1.317 3.774.037.051 2.28.13 3.713-1.887 1.432-2.018 1.143-3.587 1.092-3.645Zm4.971 17.6c-.072-.144-3.488-1.851-3.17-5.133.318-3.284 2.513-4.184 2.547-4.281.035-.098-.895-1.186-1.88-1.736a5.538 5.538 0 0 0-2.345-.651c-.162-.005-.724-.142-1.881.174-.762.209-2.48.884-2.952.91-.474.027-1.884-.782-3.4-.997-.971-.188-2 .197-2.736.492-.735.294-2.133 1.131-3.111 3.355-.979 2.223-.467 5.745-.101 6.84.366 1.094.938 2.886 1.91 4.194.863 1.476 2.01 2.501 2.488 2.849.479.348 1.829.579 2.765.1.753-.462 2.111-.727 2.648-.708.536.02 1.592.231 2.674.809.856.295 1.666.172 2.477-.157.812-.332 1.986-1.589 3.358-4.137.52-1.186.757-1.826.709-1.924Z"/><path d="M28.773 12.012c-.051-.057-1.889.022-3.488 1.758-1.599 1.734-1.352 3.723-1.317 3.774.037.051 2.28.13 3.713-1.887 1.432-2.018 1.143-3.587 1.092-3.645Zm4.971 17.6c-.072-.144-3.488-1.851-3.17-5.133.318-3.284 2.513-4.184 2.547-4.281.035-.098-.895-1.186-1.88-1.736a5.538 5.538 0 0 0-2.345-.651c-.162-.005-.724-.142-1.881.174-.762.209-2.48.884-2.952.91-.474.027-1.884-.782-3.4-.997-.971-.188-2 .197-2.736.492-.735.294-2.133 1.131-3.111 3.355-.979 2.223-.467 5.745-.101 6.84.366 1.094.938 2.886 1.91 4.194.863 1.476 2.01 2.501 2.488 2.849.479.348 1.829.579 2.765.1.753-.462 2.111-.727 2.648-.708.536.02 1.592.231 2.674.809.856.295 1.666.172 2.477-.157.812-.332 1.986-1.589 3.358-4.137.52-1.186.757-1.826.709-1.924Z"/></g><path fill="#1A1C22" d="M38.84 12.4h2.36c.592 0 1.117.117 1.576.352.459.235.813.565 1.064.992.256.421.384.907.384 1.456a2.79 2.79 0 0 1-.384 1.464 2.56 2.56 0 0 1-1.064.984c-.459.235-.984.352-1.576.352h-2.36v-5.6Zm2.312 4.904c.453 0 .85-.088 1.192-.264a1.91 1.91 0 0 0 .8-.736c.187-.32.28-.688.28-1.104 0-.416-.093-.781-.28-1.096a1.895 1.895 0 0 0-.8-.744c-.341-.176-.739-.264-1.192-.264H39.64v4.208h1.512Zm5.881.744c-.421 0-.8-.093-1.136-.28a2.068 2.068 0 0 1-.792-.768 2.238 2.238 0 0 1-.28-1.12 2.2 2.2 0 0 1 .28-1.112c.192-.33.456-.587.792-.768.336-.187.715-.28 1.136-.28.422 0 .798.093 1.128.28.336.181.598.437.784.768.192.325.288.696.288 1.112 0 .416-.096.79-.288 1.12a2.011 2.011 0 0 1-.784.768c-.33.187-.706.28-1.128.28Zm0-.672a1.354 1.354 0 0 0 1.24-.712c.123-.23.184-.49.184-.784a1.59 1.59 0 0 0-.184-.776 1.287 1.287 0 0 0-.512-.528 1.434 1.434 0 0 0-.728-.184c-.272 0-.517.061-.736.184a1.356 1.356 0 0 0-.512.528 1.59 1.59 0 0 0-.184.776c0 .293.062.555.184.784.128.224.299.4.512.528.219.123.464.184.736.184Zm9.441-3.616L54.89 18h-.736l-1.224-3.216L51.69 18h-.736l-1.576-4.24h.728l1.232 3.376 1.28-3.376h.648l1.256 3.392 1.264-3.392h.688Zm2.924-.04c.538 0 .965.157 1.28.472.32.31.48.765.48 1.368V18h-.768v-2.352c0-.41-.099-.72-.296-.928-.198-.208-.48-.312-.848-.312-.416 0-.744.123-.984.368-.24.24-.36.587-.36 1.04V18h-.768v-4.24h.736v.64c.154-.219.362-.387.624-.504.266-.117.568-.176.904-.176Zm3.06-1.656h.769V18h-.768v-5.936Zm3.931 5.984c-.421 0-.8-.093-1.136-.28a2.068 2.068 0 0 1-.792-.768 2.238 2.238 0 0 1-.28-1.12 2.2 2.2 0 0 1 .28-1.112c.192-.33.456-.587.792-.768.336-.187.715-.28 1.136-.28.422 0 .798.093 1.128.28.336.181.598.437.784.768.192.325.288.696.288 1.112 0 .416-.096.79-.288 1.12a2.011 2.011 0 0 1-.784.768c-.33.187-.706.28-1.128.28Zm0-.672a1.354 1.354 0 0 0 1.24-.712c.123-.23.184-.49.184-.784a1.59 1.59 0 0 0-.184-.776 1.286 1.286 0 0 0-.512-.528 1.434 1.434 0 0 0-.728-.184c-.272 0-.517.061-.736.184a1.356 1.356 0 0 0-.512.528 1.59 1.59 0 0 0-.184.776c0 .293.062.555.184.784.128.224.299.4.512.528.219.123.464.184.736.184Zm4.647-3.656c.587 0 1.035.144 1.344.432.315.288.472.717.472 1.288V18h-.728v-.56c-.128.197-.312.35-.552.456a2.111 2.111 0 0 1-.84.152c-.474 0-.856-.115-1.144-.344a1.107 1.107 0 0 1-.424-.904c0-.373.136-.672.408-.896.272-.23.704-.344 1.296-.344h1.216v-.152c0-.33-.096-.584-.288-.76-.192-.176-.474-.264-.848-.264-.25 0-.496.043-.736.128-.24.08-.442.19-.608.328l-.32-.576c.219-.176.48-.31.784-.4.304-.096.627-.144.968-.144Zm-.176 3.736c.294 0 .547-.064.76-.192.214-.133.368-.32.464-.56v-.592H70.9c-.65 0-.976.219-.976.656 0 .213.083.381.248.504.166.123.395.184.688.184Zm7.317-5.392V18h-.736v-.672a1.66 1.66 0 0 1-.648.536c-.261.123-.55.184-.864.184-.41 0-.779-.09-1.104-.272a1.983 1.983 0 0 1-.768-.76 2.323 2.323 0 0 1-.272-1.136c0-.427.09-.803.272-1.128.187-.325.443-.579.768-.76a2.229 2.229 0 0 1 1.104-.272c.304 0 .584.059.84.176.256.112.47.28.64.504v-2.336h.768Zm-2.184 5.312c.267 0 .51-.061.728-.184.219-.128.39-.304.512-.528.123-.23.184-.49.184-.784a1.59 1.59 0 0 0-.184-.776 1.287 1.287 0 0 0-.512-.528 1.462 1.462 0 0 0-.728-.184c-.272 0-.517.061-.736.184a1.356 1.356 0 0 0-.512.528 1.59 1.59 0 0 0-.184.776c0 .293.061.555.184.784.128.224.299.4.512.528.219.123.464.184.736.184Zm7.362.672c-.422 0-.8-.093-1.136-.28a2.068 2.068 0 0 1-.792-.768 2.239 2.239 0 0 1-.28-1.12c0-.416.093-.787.28-1.112.192-.33.456-.587.792-.768.336-.187.714-.28 1.136-.28.421 0 .797.093 1.128.28.336.181.597.437.784.768.192.325.288.696.288 1.112 0 .416-.096.79-.288 1.12a2.01 2.01 0 0 1-.784.768c-.331.187-.707.28-1.128.28Zm0-.672a1.353 1.353 0 0 0 1.24-.712c.122-.23.184-.49.184-.784a1.59 1.59 0 0 0-.184-.776 1.286 1.286 0 0 0-.512-.528 1.434 1.434 0 0 0-.728-.184c-.272 0-.518.061-.736.184a1.356 1.356 0 0 0-.512.528 1.59 1.59 0 0 0-.184.776c0 .293.061.555.184.784.128.224.298.4.512.528.218.123.464.184.736.184Zm5.406-3.656c.538 0 .965.157 1.28.472.32.31.48.765.48 1.368V18h-.768v-2.352c0-.41-.099-.72-.296-.928-.198-.208-.48-.312-.848-.312-.416 0-.744.123-.984.368-.24.24-.36.587-.36 1.04V18h-.768v-4.24h.736v.64c.154-.219.362-.387.624-.504.266-.117.568-.176.904-.176Zm7.474 4.032c-.112.096-.251.17-.416.224a1.827 1.827 0 0 1-.513.072c-.426 0-.757-.115-.992-.344-.234-.23-.351-.557-.351-.984v-2.328h-.72v-.632h.72v-.928h.768v.928h1.216v.632H94.73v2.296c0 .23.056.405.168.528.117.123.282.184.495.184a.926.926 0 0 0 .6-.2l.24.552Zm3.072-4.032c.539 0 .965.157 1.28.472.32.31.48.765.48 1.368V18h-.768v-2.352c0-.41-.099-.72-.296-.928-.197-.208-.48-.312-.848-.312-.416 0-.744.123-.984.368-.24.24-.36.587-.36 1.04V18h-.768v-5.936h.768v2.296c.16-.203.368-.36.624-.472a2.19 2.19 0 0 1 .872-.168Zm6.917 2.184c0 .059-.006.136-.016.232h-3.44c.048.373.21.675.488.904.282.224.632.336 1.048.336.506 0 .914-.17 1.224-.512l.424.496a1.851 1.851 0 0 1-.72.512 2.47 2.47 0 0 1-.952.176c-.448 0-.846-.09-1.192-.272a2.02 2.02 0 0 1-.808-.776 2.235 2.235 0 0 1-.28-1.12c0-.41.09-.781.272-1.112.186-.33.44-.587.76-.768a2.16 2.16 0 0 1 1.096-.28c.405 0 .765.093 1.08.28.32.181.568.437.744.768.181.33.272.71.272 1.136Zm-2.096-1.536a1.34 1.34 0 0 0-.928.336c-.246.224-.39.517-.432.88h2.72a1.344 1.344 0 0 0-.44-.872 1.296 1.296 0 0 0-.92-.344ZM45.672 30.732h-4.9L39.806 33H37.93l4.41-9.8h1.792l4.424 9.8h-1.904l-.98-2.268Zm-.602-1.428-1.848-4.284-1.834 4.284h3.682Zm8.498-3.864c.728 0 1.377.159 1.946.476a3.419 3.419 0 0 1 1.358 1.344c.327.579.49 1.246.49 2.002 0 .756-.163 1.428-.49 2.016a3.419 3.419 0 0 1-1.358 1.344c-.569.317-1.218.476-1.946.476-1.008 0-1.806-.336-2.394-1.008v3.626h-1.75V25.524h1.666v.98c.29-.355.644-.62 1.064-.798.43-.177.901-.266 1.414-.266Zm-.196 6.16c.644 0 1.172-.215 1.582-.644.42-.43.63-.994.63-1.694s-.21-1.265-.63-1.694c-.41-.43-.938-.644-1.582-.644-.42 0-.798.098-1.134.294a2.026 2.026 0 0 0-.798.812c-.196.355-.294.765-.294 1.232 0 .467.098.877.294 1.232.196.355.462.63.798.826.336.187.714.28 1.134.28Zm9.584-6.16c.728 0 1.377.159 1.946.476a3.42 3.42 0 0 1 1.358 1.344c.327.579.49 1.246.49 2.002 0 .756-.163 1.428-.49 2.016a3.42 3.42 0 0 1-1.358 1.344c-.57.317-1.218.476-1.946.476-1.008 0-1.806-.336-2.394-1.008v3.626h-1.75V25.524h1.666v.98c.29-.355.644-.62 1.064-.798.43-.177.9-.266 1.414-.266Zm-.196 6.16c.644 0 1.171-.215 1.582-.644.42-.43.63-.994.63-1.694s-.21-1.265-.63-1.694c-.41-.43-.938-.644-1.582-.644-.42 0-.798.098-1.134.294a2.026 2.026 0 0 0-.798.812c-.196.355-.294.765-.294 1.232 0 .467.098.877.294 1.232.196.355.462.63.798.826.336.187.714.28 1.134.28Zm12.305 1.54a7.545 7.545 0 0 1-2.198-.322c-.7-.215-1.256-.5-1.666-.854l.63-1.414a5.09 5.09 0 0 0 1.47.784 5.55 5.55 0 0 0 1.764.294c.728 0 1.27-.117 1.624-.35.364-.233.546-.541.546-.924a.865.865 0 0 0-.308-.686 1.99 1.99 0 0 0-.756-.434 17.01 17.01 0 0 0-1.26-.35 15.093 15.093 0 0 1-1.82-.532 3.081 3.081 0 0 1-1.19-.826c-.327-.383-.49-.896-.49-1.54 0-.541.144-1.031.434-1.47.298-.448.742-.803 1.33-1.064.597-.261 1.325-.392 2.184-.392a7.05 7.05 0 0 1 1.764.224 4.9 4.9 0 0 1 1.498.644l-.574 1.414a5.666 5.666 0 0 0-1.344-.574 5.027 5.027 0 0 0-1.358-.196c-.719 0-1.256.121-1.61.364-.346.243-.518.565-.518.966 0 .28.098.509.294.686.205.177.462.317.77.42.308.103.728.22 1.26.35.728.168 1.325.345 1.792.532a2.95 2.95 0 0 1 1.19.826c.336.373.504.877.504 1.512a2.56 2.56 0 0 1-.448 1.47c-.29.439-.733.789-1.33 1.05-.598.261-1.326.392-2.184.392Zm9.883-.546a2.057 2.057 0 0 1-.756.378 3.3 3.3 0 0 1-.924.126c-.822 0-1.457-.215-1.904-.644-.449-.43-.672-1.055-.672-1.876V26.98H79.46v-1.4h1.232v-1.708h1.75v1.708h2.002v1.4h-2.002v3.556c0 .364.088.644.266.84.177.187.433.28.77.28.392 0 .718-.103.98-.308l.49 1.246Zm4.343.504c-.756 0-1.437-.163-2.044-.49a3.636 3.636 0 0 1-1.428-1.358c-.336-.588-.504-1.25-.504-1.988 0-.737.168-1.395.504-1.974a3.636 3.636 0 0 1 1.428-1.358c.607-.327 1.288-.49 2.044-.49.765 0 1.451.163 2.058.49a3.54 3.54 0 0 1 1.414 1.358c.345.579.518 1.237.518 1.974 0 .737-.173 1.4-.518 1.988a3.54 3.54 0 0 1-1.414 1.358c-.607.327-1.293.49-2.058.49Zm0-1.498c.644 0 1.176-.215 1.596-.644.42-.43.63-.994.63-1.694s-.21-1.265-.63-1.694c-.42-.43-.952-.644-1.596-.644-.644 0-1.176.215-1.596.644-.41.43-.616.994-.616 1.694s.205 1.265.616 1.694c.42.43.952.644 1.596.644Zm7.12-4.984c.503-.784 1.39-1.176 2.66-1.176v1.666a2.222 2.222 0 0 0-.407-.042c-.68 0-1.213.2-1.596.602-.382.392-.574.961-.574 1.708V33h-1.75v-7.476h1.666v1.092Zm10.894 2.688c0 .121-.01.294-.028.518h-5.866c.102.55.368.99.798 1.316.438.317.98.476 1.624.476.821 0 1.498-.27 2.03-.812l.938 1.078a3.163 3.163 0 0 1-1.274.91c-.514.205-1.092.308-1.736.308-.822 0-1.545-.163-2.17-.49a3.585 3.585 0 0 1-1.456-1.358c-.336-.588-.504-1.25-.504-1.988 0-.728.163-1.381.49-1.96a3.56 3.56 0 0 1 1.386-1.372c.588-.327 1.25-.49 1.988-.49.728 0 1.376.163 1.946.49.578.317 1.026.77 1.344 1.358.326.579.49 1.25.49 2.016Zm-3.78-2.464c-.56 0-1.036.168-1.428.504-.383.327-.616.765-.7 1.316h4.242c-.075-.541-.304-.98-.686-1.316-.383-.336-.859-.504-1.428-.504Z"/><defs><clipPath id="a"><path fill="#fff" d="M12 12h24v24H12z"/></clipPath></defs></svg>