<svg xmlns="http://www.w3.org/2000/svg" width="70" height="70" fill="none" viewBox="0 0 70 70"><path fill="#FEF4F4" d="M58.159 27.349a25.198 25.198 0 0 0-18.4-14.868l3.658-5.853-3.71-2.319-4.826 7.723A25.162 25.162 0 0 0 11.84 27.35a9.84 9.84 0 0 0 0 19.677 25.166 25.166 0 0 0 46.318 0 9.84 9.84 0 0 0 0-19.678Zm3.712 13.668a5.437 5.437 0 0 1-3.795 1.635l-2.834.054-1.109 2.608a20.79 20.79 0 0 1-38.266 0l-1.11-2.608-2.833-.054a5.466 5.466 0 0 1 0-10.93l2.834-.053 1.11-2.608a20.79 20.79 0 0 1 38.265 0l1.11 2.608 2.833.054a5.464 5.464 0 0 1 3.795 9.294Z"/><path fill="#FEF4F4" d="M22.969 31.719h5.468v5.468H22.97V31.72Zm18.594 0h5.468v5.468h-5.468V31.72ZM35 52.5a10.937 10.937 0 0 0 10.938-10.938H24.061A10.937 10.937 0 0 0 35 52.5Z"/></svg>