<svg xmlns="http://www.w3.org/2000/svg" width="70" height="70" fill="none" viewBox="0 0 70 70"><path fill="#FEF4F4" d="M13.854 11.667a8.02 8.02 0 0 0-8.02 8.02V44.48a8.02 8.02 0 0 0 8.02 8.021h42.292a8.02 8.02 0 0 0 8.02-8.02V19.687a8.02 8.02 0 0 0-8.02-8.021H13.854Zm-3.646 8.02a3.647 3.647 0 0 1 3.646-3.645h42.292a3.647 3.647 0 0 1 3.646 3.645V44.48a3.647 3.647 0 0 1-3.646 3.646H13.854a3.647 3.647 0 0 1-3.646-3.646V19.688Zm6.562 37.188a2.188 2.188 0 0 0 0 4.376h36.46a2.187 2.187 0 1 0 0-4.376H16.77Z"/></svg>