<svg xmlns="http://www.w3.org/2000/svg" width="70" height="70" fill="none" viewBox="0 0 70 70"><path fill="#FEF4F4" d="M20.457 14c-1.683 0-2.957 1.309-2.957 2.814V21H14v-4.186c0-3.535 2.94-6.314 6.457-6.314h36.085C60.06 10.5 63 13.279 63 16.814v25.872C63 46.221 60.06 49 56.542 49H35v-3.5h21.542c1.684 0 2.958-1.309 2.958-2.814V16.814c0-1.505-1.274-2.814-2.958-2.814H20.458ZM35 42h8.75a1.75 1.75 0 0 0 0-3.5H35V42ZM17.5 52.5a1.75 1.75 0 0 0 0 3.5H21a1.75 1.75 0 0 0 0-3.5h-3.5ZM7 29.75a5.25 5.25 0 0 1 5.25-5.25h14a5.25 5.25 0 0 1 5.25 5.25v28A5.25 5.25 0 0 1 26.25 63h-14A5.25 5.25 0 0 1 7 57.75v-28ZM12.25 28a1.75 1.75 0 0 0-1.75 1.75v28a1.75 1.75 0 0 0 1.75 1.75h14A1.75 1.75 0 0 0 28 57.75v-28A1.75 1.75 0 0 0 26.25 28h-14Z"/></svg>