<svg xmlns="http://www.w3.org/2000/svg" width="128" height="48" fill="none" viewBox="0 0 128 48"><rect width="128" height="48" fill="#FEF4F4" rx="15"/><g clip-path="url(#a)"><path fill="#FFD900" d="M28.512 27.662c2.838-1.561 4.99-2.75 5.175-2.842.593-.316 1.206-1.153 0-1.802a648.12 648.12 0 0 1-5.175-2.842l-3.729 3.77 3.729 3.716Z"/><path fill="#F43249" d="M24.783 23.947 12.911 35.928c.279.037.593-.037.964-.241.78-.427 9.034-4.941 14.637-8.024l-3.729-3.716Z"/><path fill="#00EE76" d="m24.783 23.947 3.729-3.753s-13.802-7.542-14.637-7.987c-.314-.187-.667-.242-.982-.187l11.89 11.926Z"/><path fill="#00D3FF" d="M24.783 23.947 12.893 12.02c-.483.111-.89.538-.89 1.41v21.085c0 .8.315 1.375.908 1.43l11.872-12Z"/><path fill="#1A1C22" d="M63.499 24.346c-2.133 0-3.896 1.653-3.896 3.92 0 2.247 1.744 3.919 3.896 3.919s3.895-1.653 3.895-3.92c0-2.266-1.743-3.919-3.895-3.919Zm0 6.28c-1.169 0-2.189-.986-2.189-2.378 0-1.412 1.02-2.377 2.189-2.377 1.168 0 2.188.965 2.188 2.377 0 1.392-1.02 2.377-2.188 2.377Zm-8.478-6.28c-2.151 0-3.895 1.653-3.895 3.92 0 2.247 1.744 3.919 3.895 3.919 2.152 0 3.896-1.653 3.896-3.92 0-2.266-1.744-3.919-3.896-3.919Zm0 6.28c-1.169 0-2.188-.986-2.188-2.378 0-1.412 1.02-2.377 2.188-2.377 1.17 0 2.189.965 2.189 2.377 0 1.392-1.002 2.377-2.189 2.377ZM44.95 25.553v1.652h3.932c-.112.93-.426 1.616-.89 2.081-.575.576-1.466 1.208-3.042 1.208-2.431 0-4.304-1.97-4.304-4.403s1.874-4.44 4.303-4.44c1.317 0 2.264.521 2.969 1.19l1.168-1.17C48.1 20.723 46.785 20 44.949 20c-3.322 0-6.104 2.73-6.104 6.055 0 3.326 2.782 6.056 6.104 6.056 1.799 0 3.135-.594 4.21-1.71 1.095-1.095 1.429-2.637 1.429-3.882 0-.39-.037-.743-.093-1.04l-5.546.075Zm41.219 1.281c-.316-.873-1.317-2.489-3.321-2.489-2.004 0-3.655 1.58-3.655 3.92 0 2.19 1.65 3.919 3.84 3.919 1.78 0 2.801-1.096 3.228-1.728l-1.317-.892c-.445.65-1.039 1.078-1.91 1.078-.873 0-1.484-.39-1.875-1.19l5.176-2.172-.166-.446Zm-5.27 1.32c-.036-1.506 1.17-2.285 2.023-2.285.686 0 1.243.334 1.446.836L80.9 28.154Zm-4.21 3.77h1.707v-11.48h-1.707v11.48Zm-2.782-6.706h-.056c-.389-.465-1.112-.873-2.04-.873-1.948 0-3.71 1.728-3.71 3.92 0 2.19 1.78 3.9 3.71 3.9.927 0 1.65-.408 2.04-.891h.056v.557c0 1.505-.798 2.303-2.078 2.303-1.039 0-1.688-.761-1.948-1.393l-1.483.632c.426 1.04 1.558 2.322 3.431 2.322 2.003 0 3.692-1.19 3.692-4.068v-7.04h-1.614v.631Zm-1.948 5.406c-1.169 0-2.151-.985-2.151-2.359 0-1.373.983-2.377 2.151-2.377 1.15 0 2.078 1.003 2.078 2.377 0 1.356-.928 2.36-2.078 2.36Zm22.168-10.18h-4.081v11.48h1.707v-4.347h2.374c1.892 0 3.747-1.375 3.747-3.566 0-2.192-1.855-3.567-3.747-3.567Zm.055 5.537H91.77v-3.94h2.412c1.261 0 2.003 1.06 2.003 1.97-.017.891-.74 1.97-2.003 1.97Zm10.5-1.654c-1.224 0-2.504.538-3.024 1.764l1.503.632c.335-.632.928-.836 1.559-.836.89 0 1.781.539 1.799 1.486v.112c-.315-.186-.964-.447-1.781-.447-1.632 0-3.284.91-3.284 2.583 0 1.542 1.337 2.526 2.82 2.526 1.151 0 1.781-.52 2.17-1.133h.056v.892h1.65v-4.403c-.018-2.024-1.52-3.177-3.468-3.177Zm-.204 6.279c-.556 0-1.336-.28-1.336-.966 0-.892.964-1.226 1.799-1.226.742 0 1.095.167 1.559.39a2.054 2.054 0 0 1-2.022 1.802Zm9.628-6.019-1.948 4.96h-.056l-2.021-4.96h-1.836l3.042 6.947-1.726 3.883h1.781l4.656-10.83h-1.893.001ZM98.82 31.924h1.707v-11.48H98.82v11.48ZM43.448 15.112h1.184v2.272c-.304.23-.656.405-1.056.528s-.803.184-1.208.184a3.303 3.303 0 0 1-1.568-.368 2.837 2.837 0 0 1-1.096-1.032 2.887 2.887 0 0 1-.392-1.496c0-.555.13-1.05.392-1.488a2.747 2.747 0 0 1 1.104-1.032c.47-.25.997-.376 1.584-.376.49 0 .936.083 1.336.248.4.165.736.405 1.008.72l-.832.768a1.924 1.924 0 0 0-1.448-.632 1.98 1.98 0 0 0-.952.224c-.277.15-.493.36-.648.632a1.86 1.86 0 0 0-.232.936c0 .347.077.656.232.928.155.272.368.485.64.64.277.15.592.224.944.224a2.1 2.1 0 0 0 1.008-.24v-1.64Zm6.604 1.848V18h-4.336v-5.6h4.232v1.04h-2.944v1.216h2.6v1.008h-2.6v1.296h3.048Zm2.071-3.504h-1.792V12.4h4.88v1.056H53.42V18h-1.296v-4.544Zm5.811-1.056h1.296V18h-1.296v-5.6Zm3.665 1.056h-1.792V12.4h4.88v1.056h-1.792V18h-1.296v-4.544Zm8.523 4.64a3.292 3.292 0 0 1-1.576-.376 2.837 2.837 0 0 1-1.096-1.032 2.872 2.872 0 0 1-.392-1.488c0-.55.13-1.043.392-1.48.267-.443.632-.79 1.096-1.04.47-.25.995-.376 1.576-.376.581 0 1.104.125 1.568.376a2.817 2.817 0 0 1 1.496 2.52c0 .55-.133 1.045-.4 1.488a2.836 2.836 0 0 1-1.096 1.032c-.464.25-.987.376-1.568.376Zm0-1.104c.33 0 .63-.075.896-.224.267-.155.475-.368.624-.64a1.84 1.84 0 0 0 .232-.928 1.84 1.84 0 0 0-.232-.928 1.58 1.58 0 0 0-.624-.632 1.752 1.752 0 0 0-.896-.232c-.33 0-.63.077-.896.232a1.64 1.64 0 0 0-.632.632c-.15.272-.224.581-.224.928 0 .347.075.656.224.928.155.272.365.485.632.64.267.15.565.224.896.224Zm9.054-4.592V18h-1.064l-2.792-3.4V18h-1.28v-5.6h1.072l2.784 3.4v-3.4h1.28Z"/></g><defs><clipPath id="a"><path fill="#fff" d="M12 12h104v24H12z"/></clipPath></defs></svg>