<svg xmlns="http://www.w3.org/2000/svg" width="70" height="70" fill="none" viewBox="0 0 70 70"><path fill="#FEF4F4" d="M58.333 5.833H11.667a5.833 5.833 0 0 0-5.834 5.834v35a5.833 5.833 0 0 0 5.834 5.833h17.5v5.833h-8.75v5.834h29.166v-5.834h-8.75V52.5h17.5a5.833 5.833 0 0 0 5.834-5.833v-35a5.833 5.833 0 0 0-5.834-5.834Zm0 40.834H11.667v-35h46.666v35Zm-9.479-8.75a5.104 5.104 0 0 1-10.208 0l-9.48-4.784a4.988 4.988 0 1 1 0-7.904l9.48-4.812a5.162 5.162 0 1 1 1.983 3.995l-9.391 4.755 9.391 4.695a5.075 5.075 0 0 1 8.225 4.055Z"/></svg>