<svg xmlns="http://www.w3.org/2000/svg" width="90" height="24" fill="none" viewBox="0 0 90 24"><path fill="#DB202C" d="M59.248 0v17.427c2.15.1 4.293.22 6.431.363v3.695a316.84 316.84 0 0 0-10.18-.515V0h3.749Zm29.799.002-4.883 11.32 4.882 12.599-.006.002a312.054 312.054 0 0 0-4.274-.578l-2.741-7.07-2.768 6.414a315.497 315.497 0 0 0-3.941-.41l4.76-11.032L75.716.002h4.057l2.441 6.293L84.928.002h4.119ZM42.628 20.787V.002h10.468V3.73h-6.718v4.83h5.083v3.695h-5.083v8.53l-3.75.001ZM28.626 3.73V.002h11.598V3.73H36.3v17.158c-1.252.033-2.502.072-3.75.119V3.73h-3.924Zm-12.82 18.351V.002h10.416V3.73h-6.666v5.05c1.531-.02 3.709-.042 5.064-.039v3.696c-1.696-.021-3.61.023-5.064.037v5.594a322.35 322.35 0 0 1 6.666-.456v3.696c-3.476.2-6.948.458-10.416.773ZM8.45 13.54V.002h3.75V22.43c-1.37.14-2.739.29-4.105.449L3.753 10.404v13.01c-1.252.162-2.502.332-3.75.51V.002h3.564L8.45 13.54Zm60.323 8.168V.002h3.75v22.015a298.04 298.04 0 0 0-3.75-.31Z"/></svg>