<svg xmlns="http://www.w3.org/2000/svg" width="24" height="24" fill="none" viewBox="0 0 24 24"><path fill="#FFC300" d="M13.37 1.59a2.75 2.75 0 0 0-2.74 0c-.38.218-.668.56-.932.943-.263.381-.558.888-.923 1.513l-.637 1.095c-.234.4-.3.506-.375.59a1.25 1.25 0 0 1-.416.302c-.103.046-.224.076-.677.174l-1.238.268c-.707.153-1.28.278-1.724.41-.447.133-.86.301-1.185.595a2.75 2.75 0 0 0-.847 2.606c.09.429.326.808.609 1.178.281.368.672.805 1.154 1.345l.844.944c.31.347.39.442.445.539.087.15.14.317.16.49.011.111.002.235-.044.697l-.128 1.26c-.073.72-.132 1.304-.143 1.767-.011.466.02.911.2 1.31a2.75 2.75 0 0 0 2.217 1.612c.435.046.868-.061 1.308-.216.437-.154.973-.39 1.636-.682l1.159-.51c.424-.188.54-.235.65-.258.17-.035.345-.035.514 0 .11.023.226.07.65.257l1.16.511c.662.292 1.198.529 1.635.682.44.155.873.262 1.308.216a2.75 2.75 0 0 0 2.218-1.611c.179-.4.21-.845.2-1.311-.012-.463-.071-1.047-.144-1.767l-.128-1.26c-.046-.462-.055-.586-.043-.697a1.25 1.25 0 0 1 .159-.49c.056-.097.136-.192.445-.539l.844-.944c.482-.54.873-.977 1.154-1.345.283-.37.52-.75.61-1.178a2.75 2.75 0 0 0-.848-2.606c-.324-.294-.738-.462-1.185-.595-.444-.132-1.017-.257-1.724-.41l-1.238-.268c-.453-.098-.574-.128-.677-.174a1.25 1.25 0 0 1-.416-.303c-.075-.083-.141-.188-.375-.59l-.637-1.094c-.365-.625-.66-1.132-.923-1.513-.264-.384-.552-.725-.932-.943Z"/></svg>